<?xml version="1.0" encoding="UTF-8"?>
<svg width="32px" height="34px" viewBox="0 0 32 34" version="1.1" xmlns="http://www.w3.org/2000/svg" xmlns:xlink="http://www.w3.org/1999/xlink">
    <!-- Generator: Sketch 63.1 (92452) - https://sketch.com -->
    <title>Group</title>
    <desc>Created with Sketch.</desc>
    <g id="Page-1" stroke="none" stroke-width="1" fill="none" fill-rule="evenodd">
        <g id="Homepage-Design" transform="translate(-172.000000, -18.000000)">
            <g id="00-Header">
                <g id="Group" transform="translate(170.000000, 17.000000)">
                    <path d="M22.5,2.59807621 L29.0884573,6.40192379 C31.873067,8.00961894 33.5884573,10.9807621 33.5884573,14.1961524 L33.5884573,21.8038476 C33.5884573,25.0192379 31.873067,27.9903811 29.0884573,29.5980762 L22.5,33.4019238 C19.7153903,35.0096189 16.2846097,35.0096189 13.5,33.4019238 L6.91154273,29.5980762 C4.12693304,27.9903811 2.41154273,25.0192379 2.41154273,21.8038476 L2.41154273,14.1961524 C2.41154273,10.9807621 4.12693304,8.00961894 6.91154273,6.40192379 L13.5,2.59807621 C16.2846097,0.990381057 19.7153903,0.990381057 22.5,2.59807621 Z" id="Polygon" fill="#293D5A"></path>
                    <path d="M9.50746269,25 C9.7734057,25 9.99819086,24.9279341 10.1818182,24.7838023 C10.3654455,24.6396706 10.488919,24.4779227 10.5522388,24.2985587 L11.3690638,21.8579272 L16.6309362,21.8579272 L17.4477612,24.2985587 C17.5174129,24.5035461 17.6424695,24.6716998 17.8229308,24.8030199 C18.0033921,24.93434 18.2329263,25 18.5115332,25 L21,25 L15.6431479,11 L12.3568521,11 L7,25 L9.50746269,25 Z M15.890095,19.6479067 L12.109905,19.6479067 L13.3826323,15.8332189 C13.4776119,15.5897964 13.5789236,15.3015328 13.6865672,14.9684283 C13.7942108,14.6353237 13.8986884,14.2733928 14,13.8826356 C14.1076436,14.266987 14.2168702,14.6241135 14.3276798,14.9540151 C14.4384894,15.2839167 14.535052,15.5705788 14.6173677,15.8140014 L15.890095,19.6479067 Z" id="A-Copy" fill="#FFE51B" fill-rule="nonzero"></path>
                    <path d="M26,20 L27,20 C28.1045695,20 29,20.8954305 29,22 L29,23 C29,24.1045695 28.1045695,25 27,25 L24,25 L24,25 L24,22 C24,20.8954305 24.8954305,20 26,20 Z" id="Rectangle" fill="#FFE51B" fill-rule="nonzero"></path>
                    <polygon id="Path-2" fill="#FFE51B" points="11.3690638 21.8579272 12.109905 19.6479067 15.890095 19.6479067 16.6309362 21.8579272"></polygon>
                </g>
            </g>
        </g>
    </g>
</svg>